<?xml version="1.0" encoding="UTF-8"?><svg id="Layer_1" xmlns="http://www.w3.org/2000/svg" viewBox="0 0 512 254"><defs><style>.cls-1{fill:#fff;}</style></defs><g><path class="cls-1" d="M490.16,166.85h.04c.35,0,.75,.03,1.2,.09l.59-55.66-29.4,55.56h27.57Z"/><polygon class="cls-1" points="330.13 179.69 330.13 184.09 344.3 184.09 400.14 85.35 400.14 169.45 409.92 166.85 444.85 166.85 512 48.18 486.58 48.18 422.13 162.1 422.13 48.18 395.71 48.18 331.25 162.1 331.25 48.18 309.37 48.18 309.37 179.69 330.13 179.69"/><path class="cls-1" d="M22.14,179.13l54.52,.88,9.5,1.56h14.91c1.56-.95,2.9-1.29,3.71-1.42l1.06-.08h16.69l3.34,3.39h36.47l45.42-74.38L138.45,0l-40.7,91.52-30-47.77L7.57,179.13h14.57ZM123.64,52.7l16.38-35.82,56.45,89.13h-27.09l-9.98-17.55-37.71,12.31,17.03-41.87-15.08-6.19Zm-62.28,19.17l7.46-15.5,22.43,36.95-23.86,10.48,3.58-13.42-20.76,18.11,15.81-31.72-4.66-4.9Z"/><path class="cls-1" d="M204.64,179.69v5.27h1.63l13.11-21.59h49.02v5.95c2.91,1.42,4.4,3.58,4.4,6.9v3.82l4.81,4.6h12.78V48.18h-26.93l-79.89,131.5h21.08Zm63.76-96.96v57.85h-35.2l35.2-57.85Z"/></g><path class="cls-1" d="M17.8,241.71H8.16s-8.16-2.13-8.16-27.88,8.16-27.6,8.16-27.6h9.64s-8.16,1.85-8.16,27.6,8.16,27.88,8.16,27.88Zm81.45-53.04s0,0,0,0h0Zm0,0h-13.67l-9.56-1.58-53.88-.87s-8.16,1.85-8.16,27.6,8.16,27.88,8.16,27.88l53.88-.87,9.56-1.58h13.67c-2.41-2.44-5.8-8.83-5.8-25.44s3.39-22.72,5.8-25.16Zm0,50.6h0s0,0,0,0c0,0,0,0,0,0Zm398.36-25.44c0,40.64-7.42,40.16-7.42,40.16h-79.34l-64.76-17.25h-24.09v14.02h-22.95l-2.9-14.55h-21.39l-5.54,5.3h-42.8l-5.89-5.63h-22.99v14.88h-21.85l-3.52-14.88h-6.26l-1.24,1.5h-41.77l-3.34,3.39h-13.72s-8.16-1.18-8.16-26.93,8.16-26.66,8.16-26.66h13.72l3.34,3.39h41.77l1.24,1.5h6.26l2.14-5.27h23.23v5.27h22.99l5.89-5.63h3.76v-10.22c0-1.25,7.95-2.26,17.76-2.26s17.76,1.01,17.76,2.26v10.22h3.52l5.54,5.3h22.22l2.06-4.94h22.95v4.41h24.09l64.76-17.25h79.34s7.42-.75,7.42,39.89Zm-235.03,0c0-8.08-6.55-14.64-14.64-14.64s-14.64,6.55-14.64,14.64,6.55,14.64,14.64,14.64,14.64-6.55,14.64-14.64Zm226.13-30.59c-1.26-2.43-2.34-5.51-2.34-5.51l-74.08-.23-53.33,14.2,53.33-8.45h76.42Zm-240.77,20.36c-5.65,0-10.24,4.58-10.24,10.24s4.58,10.24,10.24,10.24,10.24-4.58,10.24-10.24-4.58-10.24-10.24-10.24Z"/></svg>