<?xml version="1.0" encoding="UTF-8"?><svg id="Layer_1" xmlns="http://www.w3.org/2000/svg" viewBox="0 0 1024 332"><defs><style>.cls-1{fill:#fff;}</style></defs><g><path class="cls-1" d="M14.13,181.65l1.31-.34h30.12l111.83,1.8,6.76,1.11,35.11-92.82L141.25,.13l-38.53,86.63-28.39-45.22L1.33,190.83h.81c4.72-6.47,9.53-8.54,11.99-9.18ZM127.23,50.02l15.51-33.91,46.71,73.76-22.49,5.61-8.39-22.91-37.58,17.3,20.52-33.99-14.28-5.86Zm-58.95,18.14l7.06-14.67,21.23,34.98-22.59,9.92,3.39-12.7-19.65,17.14,14.97-30.02-4.41-4.64Z"/><path class="cls-1" d="M819,162.71l3.65-6.01h18.9l2.54-.68h53.5V35.14h-28.42l-82.78,136.26,32.62-8.69Zm55.38-91.11v61.06h-37.15l37.15-61.06Z"/><path class="cls-1" d="M938.52,156.03v-29.13h26.08l14.53,29.13h26.09l-16.34-32.79c7.95-3.55,14.37-9.09,19.27-16.62,5.04-7.68,7.56-16.18,7.56-25.49,0-12.71-4.33-23.53-12.99-32.47-8.59-9.01-18.95-13.52-31.08-13.52h-56.21v120.89h23.1Zm0-96.84h33.11c5.75,0,10.68,2.14,14.8,6.43,4.05,4.29,6.07,9.46,6.07,15.51s-2.02,11.08-6.07,15.29c-4.12,4.29-9.05,6.43-14.8,6.43h-33.11V59.19Z"/><polygon class="cls-1" points="664.83 182.46 725.95 74.37 725.95 187.49 763.44 177.51 844.01 35.14 817.19 35.14 749.16 155.38 749.16 35.14 721.27 35.14 653.24 155.38 653.24 35.14 630.14 35.14 630.14 182.46 664.83 182.46"/><path class="cls-1" d="M343.83,190.23l.5,.6h3.89l3.4-8.37h25.34v-41.89h19.87l28.2,50.26h27.16l8.18-7.82-28.5-48.23c18.16-8.23,28.42-24.69,28.42-46.93,0-31.58-22.65-52.71-57.26-52.71h-62.82V190.23h3.63Zm32.48-123.73h23.08c15.6,0,24.14,8.45,24.14,22.69s-8.55,22.46-24.14,22.46h-23.08v-45.15Z"/><path class="cls-1" d="M510.22,156.03c10.19,0,19.84,.51,27.17,1.45,6.96,.89,19.9,2.54,19.9,13.74v10.5h.94l10.88,10.4c18.7-3.57,35.99-13.28,48.84-30.43l-22.44-24.46c-10.47,13.79-24.14,21.57-41.02,21.57-25.21,0-41.66-18.68-41.66-45.82s16.45-45.82,41.02-45.82c14.96,0,28.42,7.34,38.46,20.46l22.44-24.47c-17.52-20.68-38.89-30.91-63.25-30.91-46.37,0-76.28,35.36-76.28,80.73,0,16.61,3.89,31.65,11,44.13,6.84-.7,15.21-1.09,23.99-1.09Z"/><path class="cls-1" d="M209.21,186.34c3.15-2.14,5.81-2.78,7.03-2.96l.29-.04,6.8-19.63h59.4l9.19,26.53h37.81l-57.04-155.09h-39.32l-56.23,151.2h32.07Zm44.03-112.27l21.58,62.05h-43.59l22.01-62.05Z"/></g><path class="cls-1" d="M36.62,306.59H16.79S0,302.21,0,249.22s16.79-57.37,16.79-57.37h19.84s-16.79,4.38-16.79,57.37,16.79,57.37,16.79,57.37Zm167.61-109.73s0,0,0,0h0Zm0,0h-28.13l-19.67-3.24-110.88-1.78s-16.79,4.38-16.79,57.37,16.79,57.37,16.79,57.37l110.88-1.78,19.67-3.24h28.13c-4.96-5.03-11.93-18.18-11.93-52.35s6.98-47.32,11.93-52.35Zm0,104.7h0s-.02,0-.02,0c0,0,0,0,0,0Zm819.76-52.36c0,83.63-15.26,82.65-15.26,82.65h-163.27l-133.26-35.49h-49.57v28.85h-47.23l-5.97-29.94h-44.02l-11.4,10.9h-88.08l-12.12-11.59h-47.3v30.63h-44.97l-7.25-30.63h-12.89l-2.54,3.08h-85.96l-6.87,6.97h-28.23s-16.79-2.43-16.79-55.43,16.79-55.43,16.79-55.43h28.23l6.87,6.97h85.96l2.54,3.08h12.89l4.41-10.85h47.81v10.85h47.3l12.12-11.59h7.73v-21.03c0-2.57,16.36-4.66,36.55-4.66s36.55,2.09,36.55,4.66v21.03h7.25l11.4,10.9h45.74l4.25-10.16h47.23v9.07h49.57l133.26-35.49h163.27s15.26-.97,15.26,82.65Zm-483.66,0c0-16.64-13.49-30.12-30.12-30.12s-30.12,13.49-30.12,30.12,13.49,30.12,30.12,30.12,30.12-13.49,30.12-30.12Zm465.35-63.53c-2.59-5.01-4.82-11.35-4.82-11.35l-152.44-.48-109.75,29.23,109.75-17.4h157.26Zm-495.47,42.47c-11.63,0-21.06,9.43-21.06,21.06s9.43,21.06,21.06,21.06,21.06-9.43,21.06-21.06-9.43-21.06-21.06-21.06Z"/></svg>