<?xml version="1.0" encoding="UTF-8"?><svg id="Layer_1" xmlns="http://www.w3.org/2000/svg" viewBox="0 0 1024 562"><defs><style>.cls-1{fill:#fff;}</style></defs><path class="cls-1" d="M210.99,194.77c3.16-2.15,5.81-2.78,7.03-2.96l.78-.12h13.72l5.21-15.03h62.22l7.62,22h38.04l2.54,3.08h.02l-58.75-159.73h-41.18l-56.82,152.76h19.56Zm58.07-112l22.61,65h-45.66l23.05-65Z"/><polygon class="cls-1" points="953.36 394.62 1007.51 394.62 1007.51 363.73 953.36 363.73 953.36 350.84 923.68 350.84 923.68 481.31 1023.51 481.31 1023.51 450.42 953.36 450.42 953.36 394.62"/><path class="cls-1" d="M398.64,190.89v-38.46h20.81l27.66,49.3h4.26l12.12-11.59h1.43v-10.5c0-4.6,2.2-7.57,5.25-9.56l-14.02-23.72c19.02-8.62,29.77-25.86,29.77-49.16,0-33.08-23.72-55.21-59.98-55.21h-65.8V190.89h38.49Zm-.67-116.04h24.17c16.34,0,25.29,8.85,25.29,23.76s-8.95,23.53-25.29,23.53h-24.17v-47.29Z"/><path class="cls-1" d="M17.21,189.75h30.12l111.83,1.8,16.06,2.65,37.29-98.59L151.76,0l-40.36,90.74-29.74-47.36L16.51,189.93l.7-.18ZM137.07,52.26l16.24-35.52,48.93,77.26-23.56,5.88-10.9-21.89-37.26,16.01,21.5-35.6-14.95-6.14Zm-61.75,19.01l7.4-15.37,22.24,36.64-23.66,10.39,3.55-13.31-20.58,17.95,15.68-31.45-4.62-4.86Z"/><path class="cls-1" d="M929.67,164.46c-12.07-8.11-19.2-22.67-19.2-40.92,0-28.19,17.23-47.99,42.97-47.99,15.67,0,29.77,7.69,40.28,21.43l23.5-25.63c-18.35-21.67-40.73-32.38-66.25-32.38-48.57,0-79.9,37.04-79.9,84.57,0,15.1,3.06,28.97,8.74,40.92h49.85Z"/><path class="cls-1" d="M980.18,164.46h30.25c.29,0,.6,.02,.93,.05l-14.29-15.58c-4.95,6.52-10.59,11.74-16.9,15.52Z"/><path class="cls-1" d="M471.13,336.68c0,7.69-2.6,14.24-7.79,19.65-5.29,5.5-11.62,8.26-19.01,8.26h-42.53v-20.39h-29.67v137.12h29.67v-85.84h33.5l42.8,85.84h33.5l-45.13-90.53c10.21-4.56,18.46-11.67,24.75-21.35,6.47-9.87,9.71-20.78,9.71-32.74,0-3.99-.34-7.83-1-11.53h-31.08c1.5,3.52,2.27,7.36,2.27,11.53Z"/><polygon class="cls-1" points="703.23 199.96 712.61 199.96 741.73 192.2 741.73 78.82 787.38 78.82 787.38 42.01 657.8 42.01 657.8 78.82 703.23 78.82 703.23 199.96"/><polygon class="cls-1" points="845.87 164.46 846.91 164.46 846.91 42.01 808.42 42.01 808.42 174.44 845.87 164.46"/><path class="cls-1" d="M512,164.46c10.19,0,19.84,.51,27.17,1.45,6.96,.89,19.9,2.54,19.9,13.74v10.5h.94l11.4,10.9h34.5l4.25-10.16h24.81c5.86-4.5,11.29-9.9,16.11-16.33l-23.5-25.63c-10.97,14.44-25.29,22.6-42.97,22.6-26.41,0-43.64-19.57-43.64-47.99s17.23-47.99,42.97-47.99c15.67,0,29.77,7.69,40.28,21.43l23.5-25.63c-18.35-21.67-40.73-32.38-66.25-32.38-48.57,0-79.9,37.04-79.9,84.57,0,15.11,3.07,28.98,8.74,40.93,.56,0,1.11-.01,1.67-.01Z"/><polygon class="cls-1" points="558.1 394.62 612.25 394.62 612.25 363.73 558.1 363.73 558.1 325.15 528.42 325.15 528.42 481.31 558.1 481.31 558.1 394.62"/><path class="cls-1" d="M712.61,315.34h-27.56l-100.83,165.97h35.14l28.85-47.54h66.46v47.54h29.81v-157.48l-31.87-8.49Zm2.06,87.53h-47.72l47.72-78.44v78.44Z"/><path class="cls-1" d="M252.23,323.61h-32.31l-61.36,108.45v-108.29l-62.51,1.01-60.7,107.28v-106.5H17.22s-1.31-.34-1.31-.34c-2.15-.56-6.1-2.21-10.23-6.95v163.05H42.06l86.7-153.31v153.31h36.37l92.13-162.81-5.03,5.11Z"/><path class="cls-1" d="M349.22,481.31v-161.49l-1.39-5.88-2.23,2.69h-56.61l-100.04,164.67h35.14l28.85-47.54h66.46v47.54h29.81Zm-77.54-78.43l47.72-78.44v78.44h-47.72Z"/><path class="cls-1" d="M906.86,481.31l-45.13-90.53c10.21-4.56,18.46-11.67,24.75-21.35,3.82-5.83,6.49-12.03,8.05-18.59h-31.82c-1.12,1.94-2.48,3.78-4.12,5.49-5.29,5.5-11.62,8.26-19.01,8.26h-42.53v-26.75l-29.67-7.9v151.38h29.67v-85.84h33.5l42.8,85.84h33.5Z"/><g><path class="cls-1" d="M1020.89,493.81h-54.82c-.19,0-.38,.22-.38,.45v1.57c0,.22,.19,.45,.38,.45h26.25v64.17c0,.22,.19,.45,.38,.45h1.54c.19,0,.38-.22,.38-.45v-64.17h26.25c.19,0,.38-.22,.38-.45v-1.57c0-.22-.19-.45-.38-.45Z"/><path class="cls-1" d="M952.6,493.81h-1.54c-.19,0-.38,.22-.38,.45v62.04h-.19s-1.44-2.01-3.85-4.92l-47.6-57.57h-1.25c-.19,0-.39,.22-.39,.45v66.18c0,.22,.19,.45,.39,.45h1.54c.19,0,.38-.22,.38-.45v-61.93h.1s2.12,2.68,3.94,4.81l47.6,57.57h1.25c.19,0,.38-.22,.38-.45v-66.18c0-.22-.19-.45-.38-.45Z"/><path class="cls-1" d="M713.4,493.81h-1.15l-28.66,65.73c-.29,.67-.29,.89-.29,1.01s.1,.34,.29,.34h1.54c.29,0,.48-.22,.67-.67l6.92-15.87h40.2l6.92,15.87c.19,.45,.38,.67,.67,.67h1.54c.19,0,.29-.22,.29-.34s0-.34-.29-1.01l-28.66-65.73Zm-19.62,48.07l15.2-34.77c2.4-5.48,3.75-9.06,3.75-9.06h.19s1.35,3.58,3.75,9.06l15.19,34.77h-38.08Z"/><path class="cls-1" d="M882.39,558.42h-41.35v-31.08h37.51c.19,0,.38-.22,.38-.45v-1.57c0-.22-.19-.45-.38-.45h-37.51v-28.62h40.39c.19,0,.39-.22,.39-.45v-1.57c0-.22-.19-.45-.39-.45h-42.31c-.19,0-.38,.22-.38,.45v66.18c0,.22,.19,.45,.38,.45h43.28c.19,0,.38-.22,.38-.45v-1.57c0-.22-.19-.45-.38-.45Z"/><path class="cls-1" d="M431.41,492.69c-16.93,0-30.77,13.19-30.77,34.66s13.85,34.65,30.77,34.65,30.77-13.19,30.77-34.65-13.85-34.66-30.77-34.66Zm0,66.85c-15.58,0-28.47-12.07-28.47-32.2s12.89-32.2,28.47-32.2,28.47,12.07,28.47,32.2-12.89,32.2-28.47,32.2Z"/><path class="cls-1" d="M394.09,493.81h-54.82c-.19,0-.39,.22-.39,.45v1.57c0,.22,.19,.45,.39,.45h26.25v64.17c0,.22,.19,.45,.38,.45h1.54c.19,0,.38-.22,.38-.45v-64.17h26.25c.19,0,.38-.22,.38-.45v-1.57c0-.22-.19-.45-.38-.45Z"/><path class="cls-1" d="M532.01,493.81h-1.54c-.19,0-.38,.22-.38,.45v35.44c0,20.35-9.71,29.85-25.01,29.85s-25-9.5-25-29.85v-35.44c0-.22-.19-.45-.39-.45h-1.54c-.19,0-.38,.22-.38,.45v35.44c0,21.57,10.87,32.31,27.31,32.31s27.31-10.73,27.31-32.31v-35.44c0-.22-.19-.45-.39-.45Z"/><path class="cls-1" d="M34.77,493.81h-1.15l-28.66,65.73c-.29,.67-.29,.89-.29,1.01s.09,.34,.29,.34h1.54c.29,0,.48-.22,.67-.67l6.92-15.87H54.29l6.92,15.87c.19,.45,.39,.67,.67,.67h1.54c.19,0,.29-.22,.29-.34s0-.34-.29-1.01l-28.66-65.73Zm-19.62,48.07l15.2-34.77c2.4-5.48,3.75-9.06,3.75-9.06h.19s1.35,3.58,3.75,9.06l15.19,34.77H15.15Z"/><path class="cls-1" d="M670.22,493.81h-1.54c-.19,0-.38,.22-.38,.45v62.04h-.19s-1.44-2.01-3.85-4.92l-47.61-57.57h-1.25c-.19,0-.38,.22-.38,.45v66.18c0,.22,.19,.45,.38,.45h1.54c.19,0,.39-.22,.39-.45v-61.93h.09s2.12,2.68,3.94,4.81l47.6,57.57h1.25c.19,0,.38-.22,.38-.45v-66.18c0-.22-.19-.45-.38-.45Z"/><path class="cls-1" d="M583.94,539.53c-2.11-2.91-3.56-4.81-3.56-4.81v-.22c13.08-1.45,18.37-9.61,18.37-19.9,0-12.07-8.37-20.79-22.31-20.79h-24.43c-.19,0-.39,.22-.39,.45v66.18c0,.22,.19,.45,.39,.45h1.54c.19,0,.38-.22,.38-.45v-25.71h23.66l18.46,25.49c.38,.56,.58,.67,.87,.67h1.63c.19,0,.39-.11,.39-.34s-.19-.45-.58-1.01l-14.43-20.01Zm-7.88-7.27h-22.12v-36h22.41c12.02,0,20.1,7.04,20.1,18.33s-6.35,17.66-20.39,17.66Z"/><path class="cls-1" d="M818.72,493.81h-.77c-.48,0-.77,.34-1.25,1.12l-29.52,49.08h-.19l-29.53-49.08c-.48-.78-.77-1.12-1.25-1.12h-.77c-.19,0-.39,.22-.39,.45v66.18c0,.22,.19,.45,.39,.45h1.54c.19,0,.38-.22,.38-.45v-61.26h.19s1.83,3.36,3.94,6.93l25.58,42.48,25.58-42.48c2.11-3.58,3.94-6.93,3.94-6.93h.19v61.26c0,.22,.19,.45,.38,.45h1.54c.19,0,.38-.22,.38-.45v-66.18c0-.22-.19-.45-.38-.45Z"/><path class="cls-1" d="M174.71,493.81h-1.54c-.19,0-.38,.22-.38,.45v66.18c0,.22,.19,.45,.38,.45h1.54c.19,0,.39-.22,.39-.45v-66.18c0-.22-.19-.45-.39-.45Z"/><path class="cls-1" d="M131.62,493.81h-1.54c-.19,0-.38,.22-.38,.45v62.04h-.19s-1.44-2.01-3.85-4.92l-47.6-57.57h-1.25c-.19,0-.39,.22-.39,.45v66.18c0,.22,.19,.45,.39,.45h1.54c.19,0,.38-.22,.38-.45v-61.93h.1s2.12,2.68,3.94,4.81l47.6,57.57h1.25c.19,0,.38-.22,.38-.45v-66.18c0-.22-.19-.45-.38-.45Z"/><path class="cls-1" d="M281.85,495.15c14.42,0,24.04,11.07,24.52,23.25,0,.22,.19,.45,.38,.45h1.54c.19,0,.38-.22,.38-.45,0-10.73-9.04-25.71-26.83-25.71-16.25,0-29.62,13.64-29.62,34.66s13.37,34.65,29.62,34.65c20.29,0,26.83-17.1,26.83-24.59,0-.22-.19-.45-.38-.45h-1.54c-.19,0-.38,.11-.38,.45-.58,9.61-7.88,22.13-24.52,22.13-15.1,0-27.31-12.74-27.31-32.2s12.21-32.2,27.31-32.2Z"/><path class="cls-1" d="M245.59,493.81h-1.25c-.38,0-.58,.22-.86,.89l-22.7,52.32c-2.31,5.37-3.75,9.06-3.75,9.06h-.19s-1.44-3.69-3.75-9.06l-22.7-52.32c-.29-.67-.48-.89-.87-.89h-1.25c-.29,0-.48,.22-.48,.45s.09,.45,.29,.89l28.56,65.73h.58l28.56-65.73c.19-.45,.29-.67,.29-.89s-.19-.45-.48-.45Z"/></g><path class="cls-1" d="M36.62,315.02H16.79S0,310.65,0,257.65s16.79-57.37,16.79-57.37h19.84s-16.79,4.38-16.79,57.37,16.79,57.37,16.79,57.37Zm167.61-109.73s0,0,0,0h0Zm0,0h-28.13l-19.67-3.24-110.88-1.78s-16.79,4.38-16.79,57.37,16.79,57.37,16.79,57.37l110.88-1.78,19.67-3.24h28.13c-4.96-5.03-11.93-18.18-11.93-52.35s6.98-47.32,11.93-52.35Zm0,104.7h0s-.02,0-.02,0c0,0,0,0,0,0Zm819.76-52.36c0,83.63-15.26,82.65-15.26,82.65h-163.27l-133.26-35.49h-49.57v28.85h-47.23l-5.97-29.94h-44.02l-11.4,10.9h-88.08l-12.12-11.59h-47.3v30.63h-44.97l-7.25-30.63h-12.89l-2.54,3.08h-85.96l-6.87,6.97h-28.23s-16.79-2.43-16.79-55.43,16.79-55.43,16.79-55.43h28.23l6.87,6.97h85.96l2.54,3.08h12.89l4.41-10.85h47.81v10.85h47.3l12.12-11.59h7.73v-21.03c0-2.57,16.36-4.66,36.55-4.66s36.55,2.09,36.55,4.66v21.03h7.25l11.4,10.9h45.74l4.25-10.16h47.23v9.07h49.57l133.26-35.49h163.27s15.26-.97,15.26,82.65Zm-483.66,0c0-16.64-13.49-30.12-30.12-30.12s-30.12,13.49-30.12,30.12,13.49,30.12,30.12,30.12,30.12-13.49,30.12-30.12Zm465.35-63.53c-2.59-5.01-4.82-11.35-4.82-11.35l-152.44-.48-109.75,29.23,109.75-17.4h157.26Zm-495.47,42.47c-11.63,0-21.06,9.43-21.06,21.06s9.43,21.06,21.06,21.06,21.06-9.43,21.06-21.06-9.43-21.06-21.06-21.06Z"/></svg>