<svg width="71" height="89" fill="none" xmlns="http://www.w3.org/2000/svg"><g clip-path="url(#a)"><path d="M34.075.702c-4.882 0-12.883 1.04-23.287 5.998A75.18 75.18 0 0 0 .335 12.696l-.203.152v57.078l.272.142 34.828 18.243.235.124.235-.124 34.822-18.243.272-.142V12.832l-.231-.15A88.504 88.504 0 0 0 59.08 6.694C52.813 3.96 43.383.702 34.075.702Z" fill="#fff"/><path d="M34.075.702c-4.882 0-12.883 1.04-23.287 5.998A75.18 75.18 0 0 0 .335 12.696l-.203.152v57.078l.272.142 34.828 18.243.235.124.235-.124 34.822-18.243.272-.142V12.832l-.231-.15A88.504 88.504 0 0 0 59.08 6.694C52.813 3.96 43.383.702 34.075.702Z" stroke="#B7B8B9" stroke-width="1.24" stroke-miterlimit="10"/><path d="M7.707 17.16c3.195-1.965 14.87-8.618 26.614-8.618 11.1 0 22.634 5.332 27.514 7.884l3.172-2.688C60.95 11.477 47.617 4.68 34.32 4.68c-14.878 0-29.027 9.42-29.614 9.819l-.852.574v50.468L7.71 62.27l-.002-45.11Z" fill="#FFCD00"/><path d="M63.303 20.235v45.28L35.502 80.076 9.023 66.21l-3.178 2.693L35.5 84.437l31.664-16.585V16.962l-3.862 3.272ZM18.312 23.51v2.063a1.742 1.742 0 0 0-.665-.539 1.956 1.956 0 0 0-.848-.189 1.661 1.661 0 0 0-1.272.528 1.84 1.84 0 0 0-.493 1.308 1.77 1.77 0 0 0 .497 1.294 1.735 1.735 0 0 0 1.304.505c.281-.001.559-.066.812-.189.257-.12.485-.295.667-.513v2.065c-.49.171-1.001.274-1.52.306a3.572 3.572 0 0 1-2.486-.973 3.206 3.206 0 0 1-1.063-2.503 3.35 3.35 0 0 1 .976-2.434c.33-.335.724-.602 1.158-.785a3.42 3.42 0 0 1 1.361-.286c.542.01 1.076.126 1.572.343ZM23.343 28.823h-2.37l-.457 1.15H18.69l2.548-6.62h1.884l2.493 6.62H23.78l-.437-1.15Zm-.464-1.317-.704-2.107h-.016l-.712 2.107h1.432ZM27.788 23.352v5.165h2.063v1.456h-3.793v-6.62h1.73ZM36.929 23.722l-.686 1.334a1.748 1.748 0 0 0-1.14-.44.915.915 0 0 0-.505.15.458.458 0 0 0-.194.579c.025.055.06.103.105.143.078.085.17.153.274.203.114.047.23.088.347.124l.438.132c.447.114.86.336 1.203.645a1.54 1.54 0 0 1 .43 1.164c0 .8-.228 1.395-.684 1.783-.53.428-1.199.65-1.88.622a3.984 3.984 0 0 1-2.327-.754l.737-1.387c.52.457 1.03.684 1.53.683.207.004.41-.055.583-.17a.564.564 0 0 0 .25-.497c0-.298-.278-.529-.834-.694l-.203-.06a6.566 6.566 0 0 1-.746-.246 2.546 2.546 0 0 1-.546-.32 1.121 1.121 0 0 1-.385-.524 2.294 2.294 0 0 1-.114-.78 2.125 2.125 0 0 1 .641-1.613 2.285 2.285 0 0 1 1.641-.609c.36.004.72.054 1.067.15.347.085.683.213.998.382ZM40.566 24.81v5.163h-1.722V24.81h-1.42v-1.459h4.562v1.459h-1.42ZM46.052 28.823h-2.37l-.457 1.15h-1.826l2.546-6.62h1.88l2.495 6.62h-1.825l-.443-1.15Zm-.464-1.317-.702-2.107h-.018l-.712 2.107h1.432ZM50.876 24.81v5.163h-1.722V24.81h-1.42v-1.459H52.3v1.459h-1.424Z" fill="#231F20"/><path d="M56.6 24.81H54.56v1.106h1.288v1.459h-1.288v1.142h2.045v1.456h-3.773v-6.62H56.6v1.458Z" fill="#231F20"/><path d="M57.125 58.083c-2.016 0-2.8-1.294-4.365-5.68l-5.657-15.948c-.18-.483-.333-.572-.872-.572h-4.935a.383.383 0 0 0-.422.392.406.406 0 0 0 .392.42c1.052 0 1.955.06 2.346.963l.662 1.566-6.32 15.257c-1.084 2.588-1.775 3.61-3.55 3.61-.333 0-.542.203-.542.392 0 .203.203.422.661.422h7.26c.422 0 .608-.181.608-.392a.468.468 0 0 0-.482-.422c-2.347 0-3.043-.63-3.043-1.444.006-.248.057-.492.15-.722l5.83-15.39 2.918 8.216h-4.547l-.446 1.174h5.415l1.42 3.91c.452 1.297.722 2.2.722 2.86 0 1.114-.783 1.384-2.738 1.384a.49.49 0 0 0-.542.452c0 .18.15.361.453.361h9.748c.304 0 .452-.18.452-.36-.006-.207-.185-.449-.576-.449Z" fill="#000"/><path d="M17.076 46.467c0-4.121-.12-6.56-.18-7.401-.15-1.747-.86-2.377-2.434-2.377-.361 0-.47-.175-.47-.386 0-.21.078-.428.378-.428h8.874c.3 0 .355.18.355.392 0 .21-.083.413-.476.413-1.653 0-2.075.609-2.317 2.378-.12.841-.18 3.28-.18 7.342v4.122c0 2.138-.014 3.431.077 4.28.182 1.685 1.511 3.058 4.395 3.184h1.994c3-.124 4.868-2.146 5.823-5.355a.52.52 0 0 1 .633-.406c.203.061.313.12.313.361 0 .542-1.856 5.195-2.029 5.767a.742.742 0 0 1-.722.541H14.4a.347.347 0 0 1-.405-.36c0-.203.086-.453.382-.453 1.3 0 2.37-.722 2.52-2.497.062-.844.181-2.98.181-7.131l-.002-1.986Z" fill="#231F20"/></g><defs><clipPath id="a"><path fill="#fff" transform="translate(0 .577)" d="M0 0h70.922v88H0z"/></clipPath></defs></svg>